<svg xmlns="http://www.w3.org/2000/svg" viewBox="0 0 760 260" role="img" aria-label="Download icon candidates contact sheet">
  <rect width="760" height="260" fill="#f6f8fa"/>
  <style>
    .card { fill: #fff; stroke: rgba(31, 41, 55, .13); }
    .label { font: 700 14px "Segoe UI", Arial, sans-serif; fill: #1f2933; }
    .note { font: 12px "Segoe UI", Arial, sans-serif; fill: #667085; }
  </style>
  <g transform="translate(24 24)">
    <rect class="card" width="108" height="150" rx="8"/>
    <svg x="30" y="22" width="48" height="48" viewBox="0 0 32 32">
      <rect x="3" y="3" width="26" height="26" rx="7" fill="#e8f0f3" stroke="#b8cbd3"/>
      <path d="M16 8v11" fill="none" stroke="#234c5d" stroke-width="2.6" stroke-linecap="round"/>
      <path d="m10.8 14.8 5.2 5.2 5.2-5.2" fill="none" stroke="#234c5d" stroke-width="2.6" stroke-linecap="round" stroke-linejoin="round"/>
      <path d="M9.5 22.5h13" fill="none" stroke="#a9572a" stroke-width="2.6" stroke-linecap="round"/>
    </svg>
    <text class="label" x="54" y="96" text-anchor="middle">A</text>
    <text class="note" x="54" y="118" text-anchor="middle">tray arrow</text>
  </g>
  <g transform="translate(148 24)">
    <rect class="card" width="108" height="150" rx="8"/>
    <svg x="30" y="22" width="48" height="48" viewBox="0 0 32 32">
      <rect x="5" y="3.5" width="22" height="25" rx="5" fill="#f8fafc" stroke="#b8cbd3"/>
      <path d="M20.5 3.5V10H27" fill="#e8f0f3" stroke="#b8cbd3" stroke-linejoin="round"/>
      <path d="M16 9.5v10" fill="none" stroke="#234c5d" stroke-width="2.5" stroke-linecap="round"/>
      <path d="m11.4 15.9 4.6 4.6 4.6-4.6" fill="none" stroke="#234c5d" stroke-width="2.5" stroke-linecap="round" stroke-linejoin="round"/>
      <path d="M11 24h10" fill="none" stroke="#a9572a" stroke-width="2.4" stroke-linecap="round"/>
    </svg>
    <text class="label" x="54" y="96" text-anchor="middle">B</text>
    <text class="note" x="54" y="118" text-anchor="middle">file arrow</text>
  </g>
  <g transform="translate(272 24)">
    <rect class="card" width="108" height="150" rx="8"/>
    <svg x="30" y="22" width="48" height="48" viewBox="0 0 32 32">
      <path d="M10.5 24.5h12a6 6 0 0 0 .8-11.9A8 8 0 0 0 8.1 15.2a4.8 4.8 0 0 0 2.4 9.3Z" fill="#e8f0f3" stroke="#b8cbd3" stroke-width="1.5" stroke-linejoin="round"/>
      <path d="M16 10.5v9.2" fill="none" stroke="#234c5d" stroke-width="2.5" stroke-linecap="round"/>
      <path d="m11.8 16 4.2 4.2 4.2-4.2" fill="none" stroke="#234c5d" stroke-width="2.5" stroke-linecap="round" stroke-linejoin="round"/>
      <path d="M12.2 25.8h7.6" fill="none" stroke="#a9572a" stroke-width="2.2" stroke-linecap="round"/>
    </svg>
    <text class="label" x="54" y="96" text-anchor="middle">C</text>
    <text class="note" x="54" y="118" text-anchor="middle">cloud</text>
  </g>
  <g transform="translate(396 24)">
    <rect class="card" width="108" height="150" rx="8"/>
    <svg x="30" y="22" width="48" height="48" viewBox="0 0 32 32">
      <circle cx="16" cy="16" r="13" fill="#315f72"/>
      <path d="M16 8.5v11" fill="none" stroke="#ffffff" stroke-width="2.7" stroke-linecap="round"/>
      <path d="m10.9 15.1 5.1 5.1 5.1-5.1" fill="none" stroke="#ffffff" stroke-width="2.7" stroke-linecap="round" stroke-linejoin="round"/>
      <path d="M10 23.5h12" fill="none" stroke="#f1b08b" stroke-width="2.5" stroke-linecap="round"/>
    </svg>
    <text class="label" x="54" y="96" text-anchor="middle">D</text>
    <text class="note" x="54" y="118" text-anchor="middle">filled action</text>
  </g>
  <g transform="translate(520 24)">
    <rect class="card" width="108" height="150" rx="8"/>
    <svg x="30" y="22" width="48" height="48" viewBox="0 0 32 32">
      <rect x="4" y="4" width="24" height="24" rx="5" fill="#f8fafc" stroke="#b8cbd3"/>
      <rect x="8.5" y="21" width="15" height="4.5" rx="2" fill="#d8e5ea"/>
      <path d="M16 7.5v11" fill="none" stroke="#234c5d" stroke-width="2.6" stroke-linecap="round"/>
      <path d="m11.1 14.1 4.9 4.9 4.9-4.9" fill="none" stroke="#234c5d" stroke-width="2.6" stroke-linecap="round" stroke-linejoin="round"/>
      <circle cx="23.2" cy="8.8" r="2.3" fill="#a9572a"/>
    </svg>
    <text class="label" x="54" y="96" text-anchor="middle">E</text>
    <text class="note" x="54" y="118" text-anchor="middle">soft square</text>
  </g>
  <g transform="translate(644 24)">
    <rect class="card" width="92" height="150" rx="8"/>
    <svg x="22" y="22" width="48" height="48" viewBox="0 0 32 32">
      <path d="M16 6.5v13" fill="none" stroke="#234c5d" stroke-width="2.7" stroke-linecap="round"/>
      <path d="m10.4 14.4 5.6 5.6 5.6-5.6" fill="none" stroke="#234c5d" stroke-width="2.7" stroke-linecap="round" stroke-linejoin="round"/>
      <path d="M8 24.5h16" fill="none" stroke="#a9572a" stroke-width="2.7" stroke-linecap="round"/>
      <path d="M7 20.8v2.5c0 1.5 1.2 2.7 2.7 2.7h12.6c1.5 0 2.7-1.2 2.7-2.7v-2.5" fill="none" stroke="#b8cbd3" stroke-width="1.8" stroke-linecap="round"/>
    </svg>
    <text class="label" x="46" y="96" text-anchor="middle">F</text>
    <text class="note" x="46" y="118" text-anchor="middle">minimal</text>
  </g>
  <text x="24" y="218" class="label">Download icon candidates for the Workspace button</text>
  <text x="24" y="238" class="note">Colors match the desktop workspace palette: teal primary, soft panel gray, and copper accent.</text>
</svg>
